<svg width="96" height="24" viewBox="0 0 96 24" fill="none" xmlns="http://www.w3.org/2000/svg">
<g clip-path="url(#clip0_91_31)">
<path d="M71.1582 16.3877C71.1582 18.2445 72.0124 19.2217 73.6406 19.2217C75.2687 19.2216 76.1396 18.2444 76.1396 16.3877L76.1396 0.00292971L81.3145 0.00292971L81.3145 16.6973C81.3145 20.9808 78.6219 23.2284 73.6406 23.2285C68.6592 23.2285 65.9824 20.9808 65.9824 16.6973L65.9824 0.00292973L71.1582 0.00292972L71.1582 16.3877ZM22.4395 11.1758C22.7941 13.0162 23.0199 14.5637 23.1973 16.8926L23.5518 16.8926C23.7452 14.5637 23.9549 13.0162 24.3096 11.1758L26.4697 0.00292978L31.5967 0.00292977L26.373 22.8057L20.1338 22.8057L14.75 0.0029298L20.2627 0.00292979L22.4395 11.1758ZM45.2676 4.27051L38.125 4.27051L38.125 9.23828L44.6709 9.23828L44.6709 12.9678L38.125 12.9678L38.125 18.5381L45.5576 18.5381L45.5576 22.8057L32.9668 22.8057L32.9668 0.00292977L45.2676 0.00292975L45.2676 4.27051ZM57.3418 10.8018C57.7609 11.8766 58.1639 13.1957 58.6475 15.0195L58.9697 14.9707C58.7602 12.6092 58.6152 10.5731 58.6152 8.74902L58.6152 0.00292974L63.6289 0.00292973L63.6289 22.8057L57.9219 22.8057L53.7148 12.0723C53.2796 10.9484 52.8923 9.69385 52.3926 7.59277L52.0537 7.6416C52.2633 9.87287 52.4092 12.3648 52.4092 14.417L52.4092 22.8057L47.4111 22.8057L47.4111 0.00292975L53.1826 0.00292974L57.3418 10.8018ZM95.9521 4.27051L88.8105 4.27051L88.8105 9.23828L95.3555 9.23828L95.3555 12.9678L88.8105 12.9678L88.8105 18.5381L96.2422 18.5381L96.2422 22.8057L83.6514 22.8057L83.6514 0.0029297L95.9521 0.00292969L95.9521 4.27051Z" fill="#171819"/>
<path d="M13.2131 12.2837C12.2924 10.5627 11.0898 8.6133 10.2354 6.94315C9.66998 5.69552 9.16023 4.56213 8.65586 3.26191C8.41534 2.60545 8.182 1.90729 7.94866 1.24539C7.74045 0.759395 7.76558 0.422099 7.43891 0.112005C7.25403 -0.0294414 6.98838 -0.0385085 6.79453 0.0938709C6.46427 0.351376 6.4535 0.797477 6.29016 1.16016C6.0317 1.88734 5.62963 3.11865 5.28322 3.95464C4.84705 4.95927 4.4432 5.93489 3.9837 6.92139C3.48471 7.92421 2.88342 8.91252 2.32879 9.9099C1.0903 12.0769 -0.289987 14.1479 0.0546361 16.8136C0.776191 23.4833 9.33792 25.6032 13.0049 20.0433C14.536 17.7801 14.5629 14.6683 13.2275 12.3127L13.2131 12.2837Z" fill="#171819"/>
</g>
<defs>
<clipPath id="clip0_91_31">
<rect width="96" height="24" fill="white"/>
</clipPath>
</defs>
</svg>
